<svg width="101" height="30" viewBox="0 0 101 30" fill="none" xmlns="http://www.w3.org/2000/svg">
<g clip-path="url(#clip0_751_1832)">
<path d="M27.4766 18.9465C25.8451 18.9465 24.3162 18.2558 22.9272 17.1313L23.2655 15.5438L23.2802 15.485C23.5813 13.7948 24.5368 10.9577 27.4766 10.9577C29.6813 10.9577 31.4747 12.7511 31.4747 14.9558C31.4672 17.1532 29.6741 18.9465 27.4766 18.9465ZM27.4766 6.90831C23.7209 6.90831 20.8108 9.34831 19.6276 13.3611C17.8196 10.6491 16.4525 7.39341 15.6515 4.65204H11.6094V15.1689C11.6094 17.2415 9.91901 18.9316 7.84646 18.9316C5.77392 18.9316 4.08373 17.2415 4.08373 15.1689V4.65204H0.0411838V15.1689C0.0264779 19.4758 3.53216 23.0107 7.83882 23.0107C12.1457 23.0107 15.6514 19.4758 15.6514 15.1689V13.4052C16.4376 15.044 17.4004 16.6975 18.569 18.1675L16.0921 29.8087H20.23L22.0231 21.3644C23.5958 22.3713 25.4039 23.0034 27.4764 23.0034C31.908 23.0034 35.5166 19.3728 35.5166 14.9411C35.5166 10.5167 31.908 6.90831 27.4764 6.90831H27.4766Z" fill="#6FDA44"/>
<path d="M47.8562 7.36406L50.4652 17.8809L53.3389 7.36406H56.7636L52.3467 22.5625H48.9218L46.2101 11.9794L43.5054 22.555H40.0807L35.6634 7.35681H39.0883L41.9618 17.8737L44.5709 7.35681H47.856V7.36426L47.8562 7.36406ZM64.9581 6.90838C60.5118 6.90838 56.9106 10.5168 56.9106 14.9558C56.9106 19.4023 60.5191 23.0035 64.9581 23.0035C69.4045 23.0035 73.013 19.4023 73.013 14.9558C73.013 10.5096 69.4045 6.90838 64.9581 6.90838ZM64.9581 19.6962C62.3418 19.6962 60.2251 17.5796 60.2251 14.9633C60.2251 12.3468 62.3491 10.2303 64.9581 10.2303C67.5745 10.2303 69.691 12.3468 69.691 14.9633C69.691 17.5723 67.5745 19.6962 64.9581 19.6962ZM82.7949 10.7668C80.4947 10.7668 78.6353 12.6335 78.6353 14.9264V22.555H75.1883V7.36406H78.6353V9.70112C78.6353 9.70112 80.1051 7.35661 83.1257 7.35661H84.1839V10.7668H82.7949ZM94.3629 14.368C96.81 12.9862 98.4712 10.3625 98.4712 7.35661H95.0241C95.0241 9.8921 92.9665 11.9499 90.431 11.9499H89.9678V0.0293579H86.5212V22.5548H89.9678V15.3968H90.3796C90.7176 15.3968 91.1586 15.6174 91.3571 15.8892L96.2515 22.555H100.382L94.3629 14.368Z" fill="black"/>
</g>
<defs>
<clipPath id="clip0_751_1832">
<rect width="100.402" height="30" fill="white"/>
</clipPath>
</defs>
</svg>
